<svg width="20" height="20" viewBox="0 0 20 20" fill="none" xmlns="http://www.w3.org/2000/svg">
<g clip-path="url(#clip0_57_1201)">
<path d="M13.8433 6.78732L14.4275 7.38065L9.6 12.1365C9.36667 12.3707 9.0525 12.5007 8.71834 12.5007C8.38417 12.5007 8.07084 12.3707 7.83417 12.1348L5.51084 9.88315L6.09084 9.28482L8.41834 11.5407C8.585 11.7065 8.855 11.7032 9.01167 11.5448L13.8425 6.78648L13.8433 6.78732ZM19.7383 11.0532L16.0342 18.0215C15.8507 18.3675 15.5764 18.657 15.2408 18.8589C14.9051 19.0608 14.5208 19.1674 14.1292 19.1673H5.89C5.49905 19.1675 5.11541 19.0613 4.78024 18.86C4.44508 18.6588 4.17103 18.37 3.9875 18.0248L0.265004 11.0607C0.0910305 10.7358 0 10.3729 0 10.0044C0 9.63587 0.0910305 9.27304 0.265004 8.94815L3.9875 1.97732C4.17106 1.63189 4.4452 1.34297 4.78052 1.14154C5.11584 0.940114 5.49967 0.833792 5.89084 0.833985H14.13C14.9283 0.833985 15.6583 1.27315 16.035 1.97982L19.7392 8.94815C20.0892 9.60732 20.0892 10.3932 19.7392 11.0523L19.7383 11.0532ZM19.0025 9.33982L15.2983 2.37232C15.1858 2.15976 15.0175 1.98184 14.8115 1.85764C14.6056 1.73344 14.3697 1.66765 14.1292 1.66732H5.89C5.40084 1.66732 4.95334 1.93648 4.72167 2.36982L1 9.34065C0.890873 9.54487 0.833781 9.77285 0.833781 10.0044C0.833781 10.236 0.890873 10.4639 1 10.6682L4.72167 17.6315C4.95334 18.0648 5.40084 18.334 5.88917 18.334H14.1283C14.6183 18.334 15.0658 18.064 15.2975 17.629L19.0017 10.6623C19.11 10.4587 19.1667 10.2317 19.1667 10.0011C19.1667 9.77046 19.1108 9.54339 19.0025 9.33982Z" fill="#115268"/>
</g>
<defs>
<clipPath id="clip0_57_1201">
<rect width="20" height="20" fill="white"/>
</clipPath>
</defs>
</svg>
