<svg width="20" height="20" viewBox="0 0 20 20" fill="none" xmlns="http://www.w3.org/2000/svg">
<path d="M9.98268 19.9884L9.46102 19.7276C7.63268 18.8134 1.66602 15.4034 1.66602 9.89422V4.27922C1.66602 3.37922 2.23935 2.58422 3.09352 2.30172L9.99935 0.0117188L16.9052 2.30172C17.3209 2.43932 17.6826 2.70449 17.9389 3.05952C18.1951 3.41455 18.333 3.84135 18.3327 4.27922V9.89422C18.3327 16.1434 12.356 19.0342 10.5243 19.7709L9.98268 19.9884ZM9.99935 0.890052L3.35602 3.09255C3.10649 3.175 2.88935 3.3341 2.73553 3.54717C2.58171 3.76024 2.49906 4.01643 2.49935 4.27922V9.89422C2.49935 14.9259 8.11268 18.1226 9.83352 18.9826L10.0202 19.0759L10.2135 18.9984C11.9227 18.3109 17.4993 15.6217 17.4993 9.89505V4.27839C17.4994 4.01576 17.4168 3.75977 17.2632 3.54676C17.1096 3.33375 16.8927 3.17453 16.6435 3.09172L9.99935 0.890052Z" fill="#115268"/>
<path d="M8.75 12.5003C8.43 12.5003 8.10917 12.3786 7.865 12.1344L5.125 9.46609L5.70583 8.86859L8.45 11.5411C8.6175 11.7078 8.88167 11.7069 9.04333 11.5453L14.2892 6.37109L14.875 6.96443L9.63083 12.1369C9.51524 12.2527 9.37791 12.3444 9.22675 12.4069C9.07559 12.4694 8.91357 12.5014 8.75 12.5011V12.5003Z" fill="#115268"/>
</svg>
