<svg width="20" height="20" viewBox="0 0 20 20" fill="none" xmlns="http://www.w3.org/2000/svg">
<g clip-path="url(#clip0_54_1025)">
<path d="M9.16667 9.30667C8.91753 9.07719 8.63795 8.88314 8.33583 8.73C8.34175 8.18165 8.56346 7.65771 8.95293 7.27167C9.34241 6.88563 9.86829 6.66856 10.4167 6.6675H15.4167C16.3275 6.6675 17.0958 7.25917 17.3783 8.07583C16.928 7.88174 16.4585 7.73565 15.9775 7.64C15.8044 7.55027 15.6125 7.50286 15.4175 7.50167H10.4175C9.72833 7.50167 9.1675 8.0625 9.1675 8.75167V9.30833L9.16667 9.30667ZM6.66667 10H2.08333C1.531 10.0007 1.00148 10.2204 0.610925 10.6109C0.220367 11.0015 0.000661607 11.531 0 12.0833L0 15H0.833333V12.0833C0.833333 11.3942 1.39417 10.8333 2.08333 10.8333H6.66667C7.35583 10.8333 7.91667 11.3942 7.91667 12.0833V12.2083C8.06167 11.8017 8.24083 11.4125 8.45417 11.0442C8.27454 10.7281 8.01465 10.4652 7.70078 10.2818C7.3869 10.0985 7.03017 10.0012 6.66667 10ZM20 14.5833C20 17.57 17.57 20 14.5833 20C11.5967 20 9.16667 17.57 9.16667 14.5833C9.16667 11.5967 11.5967 9.16667 14.5833 9.16667C17.57 9.16667 20 11.5967 20 14.5833ZM19.1667 14.5833C19.1667 12.0567 17.11 10 14.5833 10C12.0567 10 10 12.0567 10 14.5833C10 17.11 12.0567 19.1667 14.5833 19.1667C17.11 19.1667 19.1667 17.11 19.1667 14.5833ZM14.1492 15.7933C14.08 15.8617 14.0308 15.87 13.9492 15.7875L12.4025 14.2875L11.8233 14.8867L13.365 16.3808C13.5492 16.5658 13.7933 16.6667 14.0525 16.6667C14.3117 16.6667 14.5567 16.5658 14.7375 16.3842L17.6175 13.5517L17.0333 12.9575L14.1492 15.7933ZM2.08333 5.83333C2.08333 4.455 3.205 3.33333 4.58333 3.33333C5.96167 3.33333 7.08333 4.455 7.08333 5.83333C7.08333 7.21167 5.96167 8.33333 4.58333 8.33333C3.205 8.33333 2.08333 7.21167 2.08333 5.83333ZM2.91667 5.83333C2.91667 6.7525 3.66417 7.5 4.58333 7.5C5.5025 7.5 6.25 6.7525 6.25 5.83333C6.25 4.91417 5.5025 4.16667 4.58333 4.16667C3.66417 4.16667 2.91667 4.91417 2.91667 5.83333ZM10.4167 2.5C10.4167 1.12167 11.5383 0 12.9167 0C14.295 0 15.4167 1.12167 15.4167 2.5C15.4167 3.87833 14.295 5 12.9167 5C11.5383 5 10.4167 3.87833 10.4167 2.5ZM11.25 2.5C11.25 3.41917 11.9975 4.16667 12.9167 4.16667C13.8358 4.16667 14.5833 3.41917 14.5833 2.5C14.5833 1.58083 13.8358 0.833333 12.9167 0.833333C11.9975 0.833333 11.25 1.58083 11.25 2.5Z" fill="#115268"/>
</g>
<defs>
<clipPath id="clip0_54_1025">
<rect width="20" height="20" fill="white"/>
</clipPath>
</defs>
</svg>
