<svg width="20" height="20" viewBox="0 0 20 20" fill="none" xmlns="http://www.w3.org/2000/svg">
<g clip-path="url(#clip0_54_1023)">
<path d="M20 7.50065H18.3333V4.58398C18.3333 2.51648 16.6508 0.833984 14.5833 0.833984H5.41667C4.42244 0.835087 3.46926 1.23053 2.76623 1.93355C2.06321 2.63657 1.66777 3.58976 1.66667 4.58398V7.50065H0V17.5007H1.66667V19.1673H2.5V17.5007H17.5V19.1673H18.3333V17.5007H20V7.50065ZM5.41667 1.66732H14.5833C16.1917 1.66732 17.5 2.97565 17.5 4.58398V7.54232C16.55 7.73565 15.8333 8.57732 15.8333 9.58398V12.5007H4.16667V9.58398C4.16667 8.57815 3.45 7.73649 2.5 7.54232V4.58398C2.5 2.97565 3.80833 1.66732 5.41667 1.66732ZM19.1667 16.6673H0.833333V8.33398H2.08333C2.7725 8.33398 3.33333 8.89482 3.33333 9.58398V13.334H16.6667V9.58398C16.6667 8.89482 17.2275 8.33398 17.9167 8.33398H19.1667V16.6673Z" fill="#115268"/>
</g>
<defs>
<clipPath id="clip0_54_1023">
<rect width="20" height="20" fill="white"/>
</clipPath>
</defs>
</svg>
