<svg width="20" height="20" viewBox="0 0 20 20" fill="none" xmlns="http://www.w3.org/2000/svg">
<g clip-path="url(#clip0_54_1026)">
<path d="M7.9175 11.6708V11.2092L7.48083 10.96L4.0275 12.9333C3.72401 12.6558 3.32795 12.5013 2.91667 12.5C1.9975 12.5 1.25 13.2475 1.25 14.1667C1.25 15.0858 1.9975 15.8333 2.91667 15.8333C3.83583 15.8333 4.58333 15.0858 4.58333 14.1667C4.58333 13.9783 4.545 13.8 4.48667 13.6308L7.91667 11.6708H7.9175ZM2.9175 15C2.69649 15 2.48452 14.9122 2.32824 14.7559C2.17196 14.5996 2.08417 14.3877 2.08417 14.1667C2.08417 13.9457 2.17196 13.7337 2.32824 13.5774C2.48452 13.4211 2.69649 13.3333 2.9175 13.3333C3.13851 13.3333 3.35048 13.4211 3.50676 13.5774C3.66304 13.7337 3.75083 13.9457 3.75083 14.1667C3.75083 14.3877 3.66304 14.5996 3.50676 14.7559C3.35048 14.9122 3.13851 15 2.9175 15ZM9.58417 3.27417V7.36167L10.0008 7.6L10.4175 7.36167V3.27417C11.1342 3.0875 11.6675 2.44083 11.6675 1.66667C11.6675 0.7475 10.92 0 10.0008 0C9.08167 0 8.33417 0.7475 8.33417 1.66667C8.33417 2.44083 8.8675 3.0875 9.58417 3.27417ZM10.0008 0.833333C10.2218 0.833333 10.4338 0.921131 10.5901 1.07741C10.7464 1.23369 10.8342 1.44565 10.8342 1.66667C10.8342 1.88768 10.7464 2.09964 10.5901 2.25592C10.4338 2.4122 10.2218 2.5 10.0008 2.5C9.77982 2.5 9.56786 2.4122 9.41158 2.25592C9.2553 2.09964 9.1675 1.88768 9.1675 1.66667C9.1675 1.44565 9.2553 1.23369 9.41158 1.07741C9.56786 0.921131 9.77982 0.833333 10.0008 0.833333ZM17.0842 12.5C16.6558 12.5 16.2692 12.6667 15.9733 12.9333L12.52 10.96L12.0833 11.2092V11.6708L15.5133 13.6308C15.455 13.8 15.4167 13.9783 15.4167 14.1667C15.4167 15.0858 16.1642 15.8333 17.0833 15.8333C18.0025 15.8333 18.75 15.0858 18.75 14.1667C18.75 13.2475 18.0033 12.5 17.0842 12.5ZM17.0842 15C16.8632 15 16.6512 14.9122 16.4949 14.7559C16.3386 14.5996 16.2508 14.3877 16.2508 14.1667C16.2508 13.9457 16.3386 13.7337 16.4949 13.5774C16.6512 13.4211 16.8632 13.3333 17.0842 13.3333C17.3052 13.3333 17.5171 13.4211 17.6734 13.5774C17.8297 13.7337 17.9175 13.9457 17.9175 14.1667C17.9175 14.3877 17.8297 14.5996 17.6734 14.7559C17.5171 14.9122 17.3052 15 17.0842 15ZM18.7508 5V11.2958C18.4903 11.1432 18.2098 11.0274 17.9175 10.9517V5.95667L10.4175 10.2425V18.7958L14.5992 16.37C14.7942 16.59 15.0108 16.79 15.2575 16.9517L10.0008 20.0008L4.74667 16.95C4.99333 16.7875 5.20833 16.5875 5.40333 16.3675L9.58417 18.795V10.2425L2.08417 5.95583V10.9508C1.7875 11.0275 1.50917 11.145 1.25083 11.295V4.99917L6.69 1.89083C6.71 2.19083 6.76917 2.47833 6.86333 2.75167L2.51083 5.23833L10.0008 9.51833L17.4908 5.23833L13.1383 2.75167C13.2333 2.47833 13.2917 2.19083 13.3117 1.89083L18.7508 5Z" fill="#115268"/>
</g>
<defs>
<clipPath id="clip0_54_1026">
<rect width="20" height="20" fill="white"/>
</clipPath>
</defs>
</svg>
