<svg width="20" height="20" viewBox="0 0 20 20" fill="none" xmlns="http://www.w3.org/2000/svg">
<g clip-path="url(#clip0_54_1028)">
<path d="M9.66583 9.04773L9.9825 9.20607L10.3108 9.07357C11.1175 8.74857 13.75 7.47357 13.75 4.69107V2.4994C13.75 1.7794 13.2908 1.1444 12.6075 0.917734L10 0.0527344L7.3925 0.917734C7.05982 1.02756 6.77028 1.23957 6.56514 1.52357C6.35999 1.80756 6.24971 2.14906 6.25 2.4994V4.69107C6.25 7.1494 8.86417 8.6469 9.66583 9.04773ZM7.08333 2.4994C7.08333 2.1394 7.3125 1.8219 7.65417 1.70857L10 0.931068L12.345 1.70857C12.5113 1.76357 12.6561 1.86959 12.7587 2.01156C12.8613 2.15353 12.9166 2.32423 12.9167 2.4994V4.69107C12.9167 6.93023 10.7258 8.00523 10.0192 8.29273C9.305 7.93273 7.08333 6.65357 7.08333 4.69107V2.4994ZM8.13083 13.3619C8.05287 13.4403 8.00911 13.5463 8.00911 13.6569C8.00911 13.7675 8.05287 13.8735 8.13083 13.9519C8.2094 14.0292 8.3152 14.0725 8.42542 14.0725C8.53564 14.0725 8.64144 14.0292 8.72 13.9519L10.6075 12.0352L14.8358 15.8327H20V16.6661H15.2475L10.9767 19.9994H9.02333L4.7525 16.6661H0V15.8327H5.03917L9.31 19.1661H10.69L14.2267 16.4061L10.6425 13.1886L9.31167 14.5394C9.07695 14.7738 8.75891 14.9057 8.42718 14.9062C8.09545 14.9066 7.77705 14.7757 7.54167 14.5419C7.30748 14.3072 7.17596 13.9893 7.17596 13.6577C7.17596 13.3262 7.30748 13.0082 7.54167 12.7736L9.28917 11.0461L8.615 10.4319C8.3102 10.154 7.9125 9.99999 7.5 10.0002C6.95917 10.0002 5.70917 10.5286 5.09833 10.8336H0V10.0002H4.90333C5.295 9.81024 6.67917 9.1669 7.48083 9.1669C8.12167 9.1669 8.71667 9.3969 9.17667 9.81607L9.87667 10.4536L10.5142 9.83607C10.9742 9.40455 11.5818 9.16517 12.2125 9.1669C13.0058 9.1669 14.665 9.82773 15.0833 10.0002H20V10.8336L14.8392 10.8011C14.1008 10.4911 12.735 10.0002 12.2125 10.0002C11.7883 10.0002 11.385 10.1602 11.0775 10.4502L8.13167 13.3627L8.13083 13.3619Z" fill="#115268"/>
</g>
<defs>
<clipPath id="clip0_54_1028">
<rect width="20" height="20" fill="white"/>
</clipPath>
</defs>
</svg>
