<svg width="20" height="20" viewBox="0 0 20 20" fill="none" xmlns="http://www.w3.org/2000/svg">
<g clip-path="url(#clip0_147_6112)">
<path d="M14.6312 11.5302L19.3637 16.2627L16.9646 18.6618C16.1037 19.5243 14.9379 19.9993 13.6804 19.9993C7.68289 19.9993 0.0253906 12.3427 0.0253906 6.34349C0.0253906 5.08682 0.500391 3.92016 1.36289 3.05932L3.76206 0.660156L8.49456 5.39266L5.68372 8.20349C6.93872 11.1693 8.94956 13.1818 11.8171 14.3443L14.6312 11.5302ZM18.1854 16.2627L14.6312 12.7085L12.0229 15.3177L11.7704 15.221C8.50373 13.9743 6.16039 11.6318 4.80622 8.26016L4.70372 8.00432L7.31622 5.39182L3.76206 1.83849L1.95206 3.64849C1.24706 4.35266 0.858724 5.30932 0.858724 6.34349C0.858724 11.856 8.16872 19.166 13.6812 19.166C14.7154 19.166 15.6721 18.7777 16.3754 18.0727L18.1854 16.2627Z" fill="#115268"/>
</g>
<defs>
<clipPath id="clip0_147_6112">
<rect width="20" height="20" fill="white"/>
</clipPath>
</defs>
</svg>
