<svg width="20" height="20" viewBox="0 0 20 20" fill="none" xmlns="http://www.w3.org/2000/svg">
<path d="M9.99935 17.4992C8.94679 16.6014 7.97117 15.6171 7.08268 14.5567C5.74935 12.9642 4.16602 10.5925 4.16602 8.33252C4.16483 5.97214 5.58622 3.84368 7.76691 2.94035C9.94759 2.03702 12.4577 2.53689 14.126 4.20669C15.2231 5.29886 15.8376 6.78451 15.8327 8.33252C15.8327 10.5925 14.2494 12.9642 12.916 14.5567C12.0275 15.6171 11.0519 16.6014 9.99935 17.4992ZM9.99935 5.83252C9.10619 5.83252 8.28087 6.30902 7.83429 7.08252C7.3877 7.85602 7.3877 8.80902 7.83429 9.58252C8.28087 10.356 9.10619 10.8325 9.99935 10.8325C11.3801 10.8325 12.4994 9.71323 12.4994 8.33252C12.4994 6.95181 11.3801 5.83252 9.99935 5.83252Z" fill="#115268"/>
</svg>
