<svg width="20" height="20" viewBox="0 0 20 20" fill="none" xmlns="http://www.w3.org/2000/svg">
<path d="M2.28056 9.71989L5.95904 11.0957L7.39301 15.7236C7.45536 16.0363 7.82944 16.0988 8.07883 15.9112L10.1363 14.2227C10.3233 14.0351 10.635 14.0351 10.8844 14.2227L14.5629 16.9118C14.8123 17.0995 15.1864 16.9744 15.2487 16.6617L17.992 3.52855C18.0543 3.21585 17.7426 2.90316 17.4309 3.02824L2.28056 8.90689C1.90648 9.03196 1.90648 9.59481 2.28056 9.71989ZM7.20598 10.4078L14.4382 5.96756C14.5629 5.90502 14.6876 6.09264 14.5629 6.15518L8.63995 11.7211C8.45291 11.9087 8.26586 12.1589 8.26586 12.4716L8.07883 13.9725C8.07883 14.1601 7.76709 14.2227 7.70474 13.9725L6.95657 11.2208C6.76953 10.9081 6.89424 10.5329 7.20598 10.4078Z" fill="#115268"/>
</svg>
