<svg width="20" height="20" viewBox="0 0 20 20" fill="none" xmlns="http://www.w3.org/2000/svg">
<path d="M14.6099 2.4035C11.8874 1.8655 9.06021 1.8655 6.3377 2.4035C5.13351 2.6725 3.61518 4.17891 3.3534 5.36251C2.8822 7.67592 2.8822 10.0431 3.3534 12.3565C3.66754 13.5401 5.18586 15.0465 6.3377 15.3155C6.39005 15.3155 6.44241 15.3693 6.44241 15.4231V18.8126C6.44241 18.974 6.65183 19.0816 6.75655 18.9202L8.32723 17.2524C8.32723 17.2524 9.58377 15.9073 9.79319 15.6921C9.79319 15.6921 9.84555 15.6383 9.89791 15.6383C11.4686 15.6921 13.0916 15.5307 14.6623 15.2617C15.8665 14.9927 17.3848 13.4863 17.6466 12.3027C18.1178 9.98933 18.1178 7.62212 17.6466 5.30871C17.3325 4.17891 15.8141 2.6725 14.6099 2.4035ZM14.6623 12.5179C14.4005 13.0559 14.0864 13.4863 13.5628 13.7553C13.4058 13.8091 13.2487 13.8629 13.0916 13.9167C12.8822 13.8629 12.7251 13.8091 12.5681 13.7553C10.8927 13.0559 9.32199 12.0875 8.06545 10.6887C7.38482 9.88173 6.8089 8.96712 6.3377 7.99872C6.12827 7.51452 5.91885 7.08412 5.76178 6.59992C5.60471 6.16951 5.86649 5.73911 6.12827 5.41631C6.39005 5.09351 6.70419 4.87831 7.07068 4.71691C7.33246 4.55551 7.59424 4.66311 7.80367 4.87831C8.22251 5.41631 8.64136 5.95431 8.9555 6.54612C9.16492 6.92272 9.11256 7.35312 8.74607 7.62212C8.64136 7.67592 8.589 7.72972 8.48429 7.83732C8.43194 7.89112 8.32722 7.94492 8.27487 8.05252C8.17015 8.21392 8.17016 8.37532 8.22251 8.53672C8.64136 9.77413 9.4267 10.7425 10.6309 11.2805C10.8403 11.3881 10.9974 11.4419 11.2592 11.4419C11.6257 11.3881 11.7827 10.9577 12.0445 10.7425C12.3063 10.5273 12.6204 10.5273 12.9346 10.6887C13.1963 10.8501 13.4581 11.0653 13.7722 11.2805C14.034 11.4957 14.2958 11.6571 14.5576 11.8723C14.7147 11.9799 14.767 12.2489 14.6623 12.5179ZM12.4633 8.48292C12.3586 8.48292 12.411 8.48292 12.4633 8.48292C12.2539 8.48292 12.2016 8.37532 12.1492 8.21392C12.1492 8.10632 12.1492 7.94492 12.0969 7.83732C12.0445 7.62212 11.9398 7.40692 11.7304 7.24552C11.6257 7.19172 11.5209 7.13792 11.4162 7.08412C11.2592 7.03032 11.1545 7.03032 10.9974 7.03032C10.8403 6.97652 10.788 6.86892 10.788 6.70752C10.788 6.59992 10.945 6.49232 11.0497 6.49232C11.8874 6.54612 12.5157 7.03032 12.6204 8.05252C12.6204 8.10632 12.6204 8.21392 12.6204 8.26772C12.6204 8.37532 12.5681 8.48292 12.4633 8.48292ZM11.9398 6.11571C11.678 6.00811 11.4162 5.90051 11.1021 5.84671C10.9974 5.84671 10.8403 5.79291 10.7356 5.79291C10.5785 5.79291 10.4738 5.68531 10.5262 5.52391C10.5262 5.36251 10.6309 5.25491 10.788 5.30871C11.3115 5.36251 11.7827 5.47011 12.2539 5.68531C13.1963 6.16951 13.7199 6.97652 13.877 8.05252C13.877 8.10632 13.877 8.16012 13.877 8.21392C13.877 8.32152 13.877 8.42912 13.877 8.59052C13.877 8.64432 13.877 8.69812 13.877 8.75192C13.8246 8.96712 13.4581 9.02093 13.4058 8.75192C13.4058 8.69812 13.3534 8.59052 13.3534 8.53672C13.3534 8.05252 13.2487 7.56832 13.0393 7.13792C12.7251 6.65372 12.3586 6.33091 11.9398 6.11571ZM14.767 9.34373C14.6099 9.34373 14.5052 9.18233 14.5052 9.02093C14.5052 8.69812 14.4529 8.37532 14.4005 8.05252C14.1911 6.33091 12.8298 4.93211 11.2068 4.66311C10.945 4.60931 10.6832 4.60931 10.4738 4.55551C10.3168 4.55551 10.1073 4.55551 10.055 4.34031C10.0026 4.17891 10.1597 4.01751 10.3168 4.01751C10.3691 4.01751 10.4215 4.01751 10.4215 4.01751C10.5262 4.01751 12.5681 4.07131 10.4215 4.01751C12.6204 4.07131 14.4529 5.57771 14.8194 7.83732C14.8717 8.21392 14.9241 8.59052 14.9241 9.02093C15.0288 9.18233 14.9241 9.34373 14.767 9.34373Z" fill="#115268"/>
</svg>
