<svg width="20" height="20" viewBox="0 0 20 20" fill="none" xmlns="http://www.w3.org/2000/svg">
<path d="M19.2743 12.1C17.8659 13.92 14.3396 17 10.0599 17C6.16675 17 2.48734 14.495 0.717205 12.167C0.251275 11.5568 -0.000896514 10.8086 2.39492e-06 10.0391C0.000901304 9.26966 0.254821 8.5221 0.722174 7.913C2.03511 6.214 5.67577 3 10.0599 3C14.4082 3 17.9007 6.044 19.2783 7.843C19.7468 8.45258 20.0007 9.20157 20 9.97218C19.9993 10.7428 19.744 11.4913 19.2743 12.1ZM18.4911 8.454C17.2239 6.8 14.0225 4 10.0599 4C6.0614 4 2.71693 6.96 1.50735 8.526C1.17458 8.96064 0.994122 9.49386 0.994122 10.0425C0.994122 10.5911 1.17458 11.1244 1.50735 11.559C2.67618 13.095 5.96698 16 10.0608 16C13.9569 16 17.1931 13.163 18.4911 11.486C18.8254 11.0522 19.0068 10.5189 19.0068 9.97C19.0068 9.4211 18.8254 8.88778 18.4911 8.454ZM14.0354 10C14.0354 12.206 12.2524 14 10.0599 14C7.86731 14 6.08426 12.206 6.08426 10C6.08426 7.794 7.86731 6 10.0599 6C12.2524 6 14.0354 7.794 14.0354 10ZM13.0416 10C13.0416 8.346 11.7038 7 10.0599 7C8.41595 7 7.07816 8.346 7.07816 10C7.07816 11.654 8.41595 13 10.0599 13C11.7038 13 13.0416 11.654 13.0416 10Z" fill="#115268"/>
</svg>
