<svg width="20" height="20" viewBox="0 0 20 20" fill="none" xmlns="http://www.w3.org/2000/svg">
<path d="M15.8049 5.1875C14.3937 3.78125 12.5122 3 10.5261 3C6.39721 3 3.05226 6.33333 3.05226 10.4479C3.05226 11.75 3.41812 13.0521 4.0453 14.1458L3 18L6.97213 16.9583C8.06969 17.5313 9.27178 17.8438 10.5261 17.8438C14.6551 17.8438 18 14.5104 18 10.3958C17.9477 8.46875 17.216 6.59375 15.8049 5.1875ZM14.1324 13.1042C13.9756 13.5208 13.2439 13.9375 12.878 13.9896C12.5645 14.0417 12.1463 14.0417 11.7282 13.9375C11.4669 13.8333 11.101 13.7292 10.6829 13.5208C8.80139 12.7396 7.5993 10.8646 7.49477 10.7083C7.39025 10.6042 6.7108 9.71875 6.7108 8.78125C6.7108 7.84375 7.18118 7.42708 7.33798 7.21875C7.49477 7.01042 7.70383 7.01042 7.86063 7.01042C7.96516 7.01042 8.12195 7.01042 8.22648 7.01042C8.33101 7.01042 8.4878 6.95833 8.6446 7.32292C8.80139 7.6875 9.16725 8.625 9.21951 8.67708C9.27178 8.78125 9.27178 8.88542 9.21951 8.98958C9.16725 9.09375 9.11498 9.19792 9.01045 9.30208C8.90592 9.40625 8.80139 9.5625 8.74913 9.61458C8.6446 9.71875 8.54007 9.82292 8.6446 9.97917C8.74913 10.1875 9.11498 10.7604 9.6899 11.2812C10.4216 11.9062 10.9965 12.1146 11.2056 12.2188C11.4146 12.3229 11.5192 12.2708 11.6237 12.1667C11.7282 12.0625 12.0941 11.6458 12.1986 11.4375C12.3031 11.2292 12.4599 11.2813 12.6167 11.3333C12.7735 11.3854 13.7143 11.8542 13.8711 11.9583C14.0801 12.0625 14.1847 12.1146 14.2369 12.1667C14.2892 12.3229 14.2892 12.6875 14.1324 13.1042Z" fill="#115268"/>
</svg>
