<svg width="20" height="20" viewBox="0 0 20 20" fill="none" xmlns="http://www.w3.org/2000/svg">
<g clip-path="url(#clip0_57_1202)">
<path d="M14.5833 9.16667C11.5967 9.16667 9.16667 11.5967 9.16667 14.5833C9.16667 17.57 11.5967 20 14.5833 20C17.57 20 20 17.57 20 14.5833C20 11.5967 17.57 9.16667 14.5833 9.16667ZM14.5833 19.1667C12.0567 19.1667 10 17.1108 10 14.5833C10 12.0558 12.0567 10 14.5833 10C17.11 10 19.1667 12.0558 19.1667 14.5833C19.1667 17.1108 17.11 19.1667 14.5833 19.1667ZM15 14.4108L16.545 15.9558L15.9558 16.545L14.1675 14.7567V12.0842H15.0008V14.4117L15 14.4108ZM17.9167 1.66667H15V0H14.1667V1.66667H5.83333V0H5V1.66667H2.08333C1.531 1.66733 1.00148 1.88703 0.610925 2.27759C0.220367 2.66815 0.000661607 3.19767 0 3.75L0 20H10.0233C9.72231 19.7456 9.44275 19.4669 9.1875 19.1667H0.833333V7.5H19.1667V9.18833C19.4667 9.44333 19.7458 9.7225 20 10.0242V3.75C20 2.60167 19.0658 1.66667 17.9167 1.66667ZM0.833333 6.66667V3.75C0.833333 3.06083 1.39417 2.5 2.08333 2.5H17.9167C18.6058 2.5 19.1667 3.06083 19.1667 3.75V6.66667H0.833333Z" fill="#115268"/>
</g>
<defs>
<clipPath id="clip0_57_1202">
<rect width="20" height="20" fill="white"/>
</clipPath>
</defs>
</svg>
