<svg width="20" height="20" viewBox="0 0 20 20" fill="none" xmlns="http://www.w3.org/2000/svg">
<g clip-path="url(#clip0_118_8250)">
<path d="M11.4367 20H2.08333C1.531 19.9993 1.00148 19.7796 0.610925 19.3891C0.220367 18.9985 0.000661607 18.469 0 17.9167L0 12.0833C0 10.935 0.935 10 2.08333 10H11.1317C12.1383 10 12.9892 10.6783 13.25 11.6017L16.36 8.18333C16.5444 7.97944 16.7675 7.8142 17.0162 7.69719C17.265 7.58017 17.5345 7.51371 17.8092 7.50167C18.3636 7.47732 18.9053 7.67254 19.3167 8.045C19.7221 8.41729 19.9651 8.93387 19.9935 9.48357C20.0219 10.0333 19.8333 10.5721 19.4683 10.9842L11.4358 19.9992L11.4367 20ZM2.08333 10.8333C1.39417 10.8333 0.833333 11.3942 0.833333 12.0833V17.9167C0.833333 18.6058 1.39417 19.1667 2.08333 19.1667H11.0633L18.8467 10.4308C19.3042 9.91833 19.2633 9.125 18.7558 8.66167C18.508 8.43821 18.1826 8.32065 17.8492 8.33417C17.6839 8.34158 17.5217 8.38162 17.372 8.45199C17.2222 8.52235 17.0879 8.62165 16.9767 8.74417L13.2308 12.8608C13.1049 13.2562 12.8705 13.6082 12.5543 13.8769C12.2382 14.1456 11.853 14.3202 11.4425 14.3808L6.72 14.9958L6.6125 14.17L11.33 13.5558C11.6545 13.5069 11.9509 13.3435 12.1655 13.0951C12.38 12.8468 12.4987 12.5299 12.5 12.2017C12.5 11.4475 11.8858 10.8333 11.1317 10.8333H2.08333ZM9.16667 8.33333C8.2475 8.33333 7.5 7.58583 7.5 6.66667C7.5 5.7475 8.2475 5 9.16667 5C10.0858 5 10.8333 5.7475 10.8333 6.66667C10.8333 7.58583 10.0858 8.33333 9.16667 8.33333ZM9.16667 5.83333C8.7075 5.83333 8.33333 6.2075 8.33333 6.66667C8.33333 7.12583 8.7075 7.5 9.16667 7.5C9.62583 7.5 10 7.12583 10 6.66667C10 6.2075 9.62583 5.83333 9.16667 5.83333ZM4.16667 3.33333C3.2475 3.33333 2.5 2.58583 2.5 1.66667C2.5 0.7475 3.2475 0 4.16667 0C5.08583 0 5.83333 0.7475 5.83333 1.66667C5.83333 2.58583 5.08583 3.33333 4.16667 3.33333ZM4.16667 0.833333C3.7075 0.833333 3.33333 1.2075 3.33333 1.66667C3.33333 2.12583 3.7075 2.5 4.16667 2.5C4.62583 2.5 5 2.12583 5 1.66667C5 1.2075 4.62583 0.833333 4.16667 0.833333ZM3.75 8.33333H4.7225L9.58333 0H8.59L3.75 8.33333Z" fill="black"/>
</g>
<defs>
<clipPath id="clip0_118_8250">
<rect width="20" height="20" fill="white"/>
</clipPath>
</defs>
</svg>
