<svg width="36" height="36" viewBox="0 0 36 36" fill="none" xmlns="http://www.w3.org/2000/svg">
<g opacity="0.9">
<path d="M36 18C36 27.9411 27.9411 36 18 36C8.05887 36 0 27.9411 0 18C0 8.05887 8.05887 0 18 0C27.9411 0 36 8.05887 36 18Z" fill="#FC3F1D"/>
<path fill-rule="evenodd" clip-rule="evenodd" d="M17.19 9.81467C14.858 10.0641 13.2985 11.0361 12.4442 12.7723C12.0594 13.5544 11.8871 14.0342 11.8871 15.0716C11.8871 15.0716 11.8482 16.0925 12.05 16.6981C12.1756 17.0749 12.5007 17.6098 12.5007 17.6098C13.1667 18.6376 13.6786 19.3784 14.7765 20.2782L15.3513 20.7494L13.5756 23.3791C12.5989 24.8255 11.7589 26.0762 11.7088 26.1583C11.6377 26.2747 11.9488 26.3077 13.1181 26.3077H14.6187L16.7064 23.1774L18.7943 20.0469L17.6408 19.2757C16.2521 18.347 15.4893 17.6063 15.0962 16.8048C14.8481 16.2991 14.5984 15.766 14.6054 15.0716C14.6121 14.4126 14.8377 13.869 15.0893 13.4297C15.6671 12.421 16.7209 11.9568 18.5048 11.9251L19.7002 11.904L19.731 19.1058L19.7618 26.3077H21.1355H22.5092V18.0002V9.69263L20.2679 9.70888C19.0353 9.71773 17.6502 9.76542 17.19 9.81467Z" fill="white"/>
</g>
</svg>
