<svg width="20" height="20" viewBox="0 0 20 20" fill="none" xmlns="http://www.w3.org/2000/svg">
<g clip-path="url(#clip0_54_1027)">
<path d="M5 3.33333V0H2.5C1.12167 0 0 1.12167 0 2.5V17.5C0 18.8783 1.12167 20 2.5 20H20V3.33333H5ZM0.833333 2.5C0.833333 1.58083 1.58083 0.833333 2.5 0.833333H4.16667V15H2.5C1.86 15 1.27583 15.2417 0.833333 15.6383V2.5ZM19.1667 19.1667H2.5C1.58083 19.1667 0.833333 18.4192 0.833333 17.5C0.833333 16.5808 1.58083 15.8333 2.5 15.8333H5V4.16667H19.1667V19.1667ZM17.5 17.5H6.66667V5.83333H9.16667V6.66667H7.5V9.16667H9.16667V10H7.5V16.6667H11.6667V12.5H10V11.6667H14.1667V12.5H12.5V16.6667H16.6667V6.66667H12.5V9.16667H11.6667V5.83333H17.5V17.5Z" fill="#115268"/>
</g>
<defs>
<clipPath id="clip0_54_1027">
<rect width="20" height="20" fill="white"/>
</clipPath>
</defs>
</svg>
