<svg width="160" height="160" viewBox="0 0 160 160" fill="none" xmlns="http://www.w3.org/2000/svg">
<g clip-path="url(#clip0_118_8255)">
<path d="M134.047 117.42L138.76 122.133L123.954 136.927C122.984 137.898 121.833 138.669 120.566 139.195C119.298 139.721 117.939 139.992 116.567 139.992C115.195 139.992 113.836 139.721 112.568 139.195C111.301 138.669 110.149 137.898 109.18 136.927L94.4535 122.2L99.1669 117.487L113.314 131.633V96.6733H119.974V131.473L134.047 117.413V117.42ZM159.954 116.673C159.954 140.553 140.527 159.98 116.647 159.98C92.7669 159.98 73.3402 140.553 73.3402 116.673C73.3402 92.7933 92.7669 73.3667 116.647 73.3667C140.527 73.3667 159.954 92.7933 159.954 116.673ZM153.294 116.673C153.294 96.4667 136.854 80.0267 116.647 80.0267C96.4402 80.0267 80.0002 96.4667 80.0002 116.673C80.0002 136.88 96.4402 153.32 116.647 153.32C136.854 153.32 153.294 136.88 153.294 116.673ZM46.6869 80.0267C39.3402 80.0267 33.3602 74.0467 33.3602 66.7C33.3602 59.3533 39.3335 53.3733 46.6869 53.3733C54.0402 53.3733 60.0135 59.3533 60.0135 66.7C60.0118 70.2339 58.6072 73.6226 56.1083 76.1214C53.6095 78.6203 50.2208 80.0249 46.6869 80.0267ZM53.3469 66.7C53.2701 64.9852 52.5349 63.3661 51.2943 62.1798C50.0537 60.9935 48.4034 60.3314 46.6869 60.3314C44.9704 60.3314 43.32 60.9935 42.0794 62.1798C40.8388 63.3661 40.1036 64.9852 40.0269 66.7C40.1036 68.4148 40.8388 70.0339 42.0794 71.2202C43.32 72.4065 44.9704 73.0686 46.6869 73.0686C48.4034 73.0686 50.0537 72.4065 51.2943 71.2202C52.5349 70.0339 53.2701 68.4148 53.3469 66.7ZM89.9935 53.3733H82.0469L43.3535 120H51.1269L89.9935 53.3733ZM73.5069 153.32L20.0335 153.4C16.5179 153.395 13.1463 152.003 10.6511 149.526C8.15584 147.05 6.73848 143.689 6.70688 140.173V40.7333L66.6735 7.61333L126.64 40.7333V60.9733C128.907 61.38 131.14 61.8733 133.3 62.54V36.8067L66.6735 0L0.046875 36.8V140.187C0.0961016 145.456 2.22467 150.492 5.96921 154.199C9.71374 157.906 14.7711 159.984 20.0402 159.98L80.2069 160C77.7911 157.964 75.5499 155.73 73.5069 153.32Z" fill="#89C1BD"/>
</g>
<defs>
<clipPath id="clip0_118_8255">
<rect width="160" height="160" fill="white"/>
</clipPath>
</defs>
</svg>
