<svg width="117" height="24" viewBox="0 0 117 24" fill="none" xmlns="http://www.w3.org/2000/svg">
<g clip-path="url(#clip0_1_2221)">
<path d="M0 8.77197H0.973174L10.5608 21.2778V8.77197H11.552V23.1602H10.777L0.991197 10.3748V23.1602H0V8.77197Z" fill="#115268"/>
<path d="M15.4805 15.9472C15.4805 12.0146 18.2738 8.51074 22.491 8.51074C26.708 8.51074 29.4654 11.9774 29.4654 15.9472C29.4654 19.8797 26.672 23.3835 22.4549 23.3835C18.2378 23.3835 15.4805 19.917 15.4805 15.9472ZM28.3841 15.9472C28.3841 12.3874 25.879 9.47992 22.4369 9.47992C18.9947 9.47992 16.5438 12.3687 16.5438 15.9472C16.5438 19.5069 19.0488 22.4144 22.491 22.4144C25.9331 22.4144 28.3841 19.5442 28.3841 15.9472Z" fill="#115268"/>
<path d="M32.4766 21.054L33.1433 20.2526C34.6752 21.7064 36.0809 22.3959 38.1354 22.3959C40.2259 22.3959 41.6496 21.1845 41.6496 19.5071C41.6496 17.9788 40.8747 17.1029 37.7209 16.4505C34.3869 15.761 33.0352 14.5868 33.0352 12.3689C33.0352 10.2256 34.9275 8.58545 37.5046 8.58545C39.5231 8.58545 40.8567 9.16326 42.2804 10.3374L41.6316 11.1761C40.316 10.0019 39.0004 9.55462 37.4866 9.55462C35.4321 9.55462 34.0805 10.7661 34.0805 12.313C34.0805 13.8413 34.8374 14.7545 38.1354 15.4628C41.3613 16.1337 42.7129 17.3265 42.7129 19.4699C42.7129 21.7995 40.7846 23.4024 38.0994 23.4024C35.8646 23.3464 34.1526 22.6009 32.4766 21.054Z" fill="#115268"/>
<path d="M45.8633 15.9472C45.8633 12.0146 48.6567 8.51074 52.8737 8.51074C57.0909 8.51074 59.8484 11.9774 59.8484 15.9472C59.8484 19.8797 57.0548 23.3835 52.8377 23.3835C48.6206 23.4022 45.8633 19.917 45.8633 15.9472ZM58.7847 15.9472C58.7847 12.3874 56.2799 9.47992 52.8377 9.47992C49.3955 9.47992 46.9446 12.3501 46.9446 15.9472C46.9446 19.507 49.4496 22.4144 52.8917 22.4144C56.3161 22.433 58.7847 19.5442 58.7847 15.9472Z" fill="#115268"/>
<path d="M63.7578 8.77197H69.5971C71.3089 8.77197 72.6789 9.33108 73.5074 10.1884C74.1562 10.8594 74.553 11.8285 74.553 12.9095C74.553 15.3138 72.823 16.6929 70.4799 17.0098L75.0757 23.1602H73.76L69.3264 17.1962H64.7853V23.1602H63.7578V8.77197ZM69.4886 16.227C71.8136 16.227 73.5436 15.0156 73.5436 12.8909C73.5436 10.9526 72.0657 9.74115 69.5428 9.74115H64.7853V16.2084H69.4886V16.227Z" fill="#115268"/>
<path d="M77.9102 15.9472C77.9102 12.0146 80.7037 8.51074 84.9204 8.51074C89.1377 8.51074 91.8951 11.9774 91.8951 15.9472C91.8951 19.8797 89.1015 23.3835 84.8848 23.3835C80.6676 23.4022 77.9102 19.917 77.9102 15.9472ZM90.8315 15.9472C90.8315 12.3874 88.3267 9.47992 84.8848 9.47992C81.4424 9.47992 78.9913 12.3501 78.9913 15.9472C78.9913 19.507 81.4967 22.4144 84.9385 22.4144C88.3809 22.4144 90.8315 19.5442 90.8315 15.9472Z" fill="#115268"/>
<path d="M95.1875 15.9472C95.1875 12.0705 97.9088 8.51074 102.054 8.51074C104.324 8.51074 105.748 9.20036 107.136 10.3931L106.469 11.1946C105.369 10.2068 104.108 9.46127 101.999 9.46127C98.6293 9.46127 96.2506 12.4247 96.2506 15.9285C96.2506 19.656 98.5033 22.4144 102.216 22.4144C103.982 22.4144 105.64 21.6502 106.649 20.7743V16.674H101.999V15.6862H107.64V21.2402C106.397 22.3958 104.432 23.4022 102.18 23.4022C97.7827 23.4022 95.1875 20.0474 95.1875 15.9472Z" fill="#115268"/>
<path d="M111.359 8.49233H117L111.359 1V8.49233Z" fill="#89C1BD"/>
</g>
<defs>
<clipPath id="clip0_1_2221">
<rect width="117" height="23" fill="white" transform="translate(0 1)"/>
</clipPath>
</defs>
</svg>
