<svg width="930" height="465" viewBox="0 0 930 465" fill="none" xmlns="http://www.w3.org/2000/svg">
<path d="M1.40042 287.2C1.40041 211.281 31.979 138.491 85.5761 84.8077C139.173 31.1248 211.203 0.400151 287 0.400146" stroke="#E4E4E4" stroke-width="0.8"/>
<path d="M928.601 178C928.601 253.746 899.311 326.389 845.75 379.95C792.19 433.51 719.146 464.4 643.401 464.4" stroke="#E4E4E4" stroke-width="0.8"/>
<path d="M178.599 464.4C131.758 464.4 86.713 445.481 53.5912 412.306C20.4694 379.131 1.3994 334.117 1.3994 287.2" stroke="#E4E4E4" stroke-width="0.8"/>
<path d="M287 354.8C287 383.803 276.158 411.579 255.683 432.087C235.207 452.595 207.556 464.4 178.6 464.4" stroke="#E4E4E4" stroke-width="0.8"/>
<path d="M287 354.799C287 336.886 280.556 319.669 267.909 307.002C255.263 294.336 237.949 287.272 220.064 287.272" stroke="#E4E4E4" stroke-width="0.8"/>
<path d="M178.2 328.8C178.2 323.309 179.56 318.104 181.658 313.031C183.756 307.958 186.831 303.349 190.707 299.466C194.584 295.583 199.186 292.504 204.251 290.402C209.315 288.301 214.582 287.272 220.064 287.272" stroke="#E4E4E4" stroke-width="0.8"/>
<path d="M178.2 328C178.2 331.379 179.145 335.756 180.436 338.878C181.727 341.999 183.619 344.836 186.004 347.225C188.39 349.614 191.222 351.51 194.339 352.803C197.455 354.096 200.427 354.8 203.8 354.8" stroke="#E4E4E4" stroke-width="0.8"/>
<path d="M219.8 338C219.8 340.112 219.81 342.884 219.003 344.835C218.197 346.786 217.014 348.559 215.523 350.052C214.032 351.545 212.262 352.73 210.314 353.538C208.366 354.346 205.908 354.8 203.8 354.8" stroke="#E4E4E4" stroke-width="0.8"/>
<path d="M219.8 354.829L219.8 287.2" stroke="#E4E4E4" stroke-width="0.8"/>
<path d="M178.062 354.881L287.4 354.881" stroke="#E4E4E4" stroke-width="0.8"/>
<path d="M178.2 286.8L178.2 464.973" stroke="#E4E4E4" stroke-width="0.8"/>
<path d="M287.917 287.272L1.00109 287.272" stroke="#E4E4E4" stroke-width="0.8"/>
<path d="M287 464.8L287 0" stroke="#E4E4E4" stroke-width="0.8"/>
<path d="M928.601 0.400404L1.40057 0.400228" stroke="#E4E4E4" stroke-width="0.8"/>
<path d="M928.601 464.4L1.40057 464.4" stroke="#E4E4E4" stroke-width="0.8"/>
<path d="M928.601 464.8L928.601 0" stroke="#E4E4E4"/>
<path d="M1.39944 464.8L1.39941 0" stroke="#E4E4E4"/>
</svg>
